# xmcd
#
# Track frame offsets: 
#        225
#        19758
#        37051
#        47359
#        58666
#        69909
#        94230
#        105513
#        129059
#        143420
#        154354
#        184527
#        197606
#        223221
#        233409
#        259755
#
# Disc length: 3599 seconds
#
# Revision: 4
# Processed by: cddbd v1.5.2PL0 Copyright (c) Steve Scherf et al.
# Submitted via: ExactAudioCopyFreeDBPlugin 1.0
#
DISCID=d10e0c10
DTITLE=Eric Clapton - Alone With My Friends [CD 1)
DYEAR=1997
DGENRE=Blues
TTITLE0=I'm A Man
TTITLE1=Who Do You Love?
TTITLE2=Eric's Blues
TTITLE3=I Got Love If You Want It
TTITLE4=Good Morning Little Schoolgirl
TTITLE5=Respectable
TTITLE6=Sweet Music
TTITLE7=23 Hours To Long
TTITLE8=Out On The Watercoast
TTITLE9=Boom Boom(Out Goes The Light)
TTITLE10=Smokestack Lightning
TTITLE11=You Cant Judge A Book By It's Cover
TTITLE12=Take It Easy Baby
TTITLE13=Let It Rock
TTITLE14=I Wish You Would
TTITLE15=Putty In Your Hands
EXTD=
EXTT0=
EXTT1=
EXTT2=
EXTT3=
EXTT4=
EXTT5=
EXTT6=
EXTT7=
EXTT8=
EXTT9=
EXTT10=
EXTT11=
EXTT12=
EXTT13=
EXTT14=
EXTT15=
PLAYORDER=
